<svg width="12" height="8" viewBox="0 0 12 8" fill="none" xmlns="http://www.w3.org/2000/svg">
<path d="M0.666016 0.666667C0.666016 0.298477 0.964492 0 1.33268 0H1.99935C2.36754 0 2.66602 0.298477 2.66602 0.666667C2.66602 1.03486 2.36754 1.33333 1.99935 1.33333H1.33268C0.964492 1.33333 0.666016 1.03486 0.666016 0.666667ZM3.99935 0.666667C3.99935 0.298477 4.29783 0 4.66602 0H10.666C11.0342 0 11.3327 0.298477 11.3327 0.666667C11.3327 1.03486 11.0342 1.33333 10.666 1.33333H4.66602C4.29783 1.33333 3.99935 1.03486 3.99935 0.666667ZM0.666016 4C0.666016 3.63181 0.964492 3.33333 1.33268 3.33333H1.99935C2.36754 3.33333 2.66602 3.63181 2.66602 4C2.66602 4.36819 2.36754 4.66667 1.99935 4.66667H1.33268C0.964492 4.66667 0.666016 4.36819 0.666016 4ZM3.99935 4C3.99935 3.63181 4.29783 3.33333 4.66602 3.33333H10.666C11.0342 3.33333 11.3327 3.63181 11.3327 4C11.3327 4.36819 11.0342 4.66667 10.666 4.66667H4.66602C4.29783 4.66667 3.99935 4.36819 3.99935 4ZM0.666016 7.33333C0.666016 6.96514 0.964492 6.66667 1.33268 6.66667H1.99935C2.36754 6.66667 2.66602 6.96514 2.66602 7.33333C2.66602 7.70152 2.36754 8 1.99935 8H1.33268C0.964492 8 0.666016 7.70152 0.666016 7.33333ZM3.99935 7.33333C3.99935 6.96514 4.29783 6.66667 4.66602 6.66667H10.666C11.0342 6.66667 11.3327 6.96514 11.3327 7.33333C11.3327 7.70152 11.0342 8 10.666 8H4.66602C4.29783 8 3.99935 7.70152 3.99935 7.33333Z" fill="white"/>
</svg>
